<svg xmlns="http://www.w3.org/2000/svg" xmlns:xlink="http://www.w3.org/1999/xlink" xmlns:a="http://ns.adobe.com/AdobeSVGViewerExtensions/3.0/" version="1.1" x="0px" y="0px" viewBox="-4.05 0 32 40" overflow="visible" enable-background="new -4.05 0 32 32" xml:space="preserve"><path d="M11.646,15.854C11.744,15.951,11.871,16,12,16c0.127,0,0.256-0.049,0.354-0.146l7.5-7C19.949,8.758,20,8.631,20,8.5  c0-0.064-0.014-0.129-0.039-0.191C19.885,8.123,19.701,8,19.5,8h-3.55V0.5c0-0.275-0.225-0.5-0.5-0.5h-7c-0.277,0-0.5,0.225-0.5,0.5  V8H4.5C4.297,8,4.115,8.123,4.037,8.309C4.012,8.371,4,8.436,4,8.5c0,0.131,0.051,0.258,0.146,0.354L11.646,15.854z"/><path d="M23.586,13.748l-3.928-1.979l-2.134,1.992L21,15.5l-9,4.459L3,15.5l3.476-1.738l-2.135-1.991l-3.927,1.978  C0.16,13.877,0,14.135,0,14.422v11.156c0,0.287,0.16,0.545,0.414,0.674l11.25,5.666C11.77,31.977,11.885,32,12,32  s0.23-0.023,0.336-0.082l11.25-5.666C23.84,26.123,24,25.865,24,25.578V14.422C24,14.135,23.84,13.877,23.586,13.748z"/><text x="-4.05" y="47" fill="#000000" font-size="5px" font-weight="bold" font-family="'Helvetica Neue', Helvetica, Arial-Unicode, Arial, Sans-serif">Created by Shmidt Sergey</text><text x="-4.05" y="52" fill="#000000" font-size="5px" font-weight="bold" font-family="'Helvetica Neue', Helvetica, Arial-Unicode, Arial, Sans-serif">from the Noun Project</text></svg>